<?xml version="1.0" encoding="UTF-8" standalone="no"?>
<svg width="128px" height="130px" viewBox="0 0 128 130" version="1.1" xmlns="http://www.w3.org/2000/svg" xmlns:xlink="http://www.w3.org/1999/xlink">
    <!-- Generator: Sketch 3.8.3 (29802) - http://www.bohemiancoding.com/sketch -->
    <title>close</title>
    <desc>Created with Sketch.</desc>
    <defs></defs>
    <g id="Page-1" stroke="none" stroke-width="1" fill="none" fill-rule="evenodd">
        <g id="close" fill="#000000">
            <g transform="translate(4.000000, 6.000000)" id="Shape">
                <path d="M69.3938333,58.9655833 L115.767833,12.5915833 C118.649,9.712875 118.649,5.04204167 115.767833,2.16333333 C112.886667,-0.717833333 108.22075,-0.717833333 105.339583,2.16333333 L58.9655833,48.5373333 L12.589125,2.16333333 C9.70795833,-0.717833333 5.04204167,-0.717833333 2.160875,2.16333333 C-0.720291667,5.04204167 -0.720291667,9.712875 2.160875,12.5915833 L48.5373333,58.9655833 L2.160875,105.339583 C-0.720291667,108.218292 -0.720291667,112.889125 2.160875,115.767833 C3.60145833,117.205958 5.48945833,117.92625 7.375,117.92625 C9.26054167,117.92625 11.1485417,117.205958 12.589125,115.765375 L58.9655833,69.391375 L105.339583,115.765375 C106.780167,117.205958 108.668167,117.92625 110.553708,117.92625 C112.43925,117.92625 114.32725,117.205958 115.767833,115.765375 C118.649,112.886667 118.649,108.215833 115.767833,105.337125 L69.3938333,58.9655833 L69.3938333,58.9655833 Z"></path>
            </g>
        </g>
    </g>
</svg>