<?xml version="1.0" encoding="UTF-8" standalone="no"?>
<svg width="128px" height="128px" viewBox="0 0 128 128" version="1.1" xmlns="http://www.w3.org/2000/svg" xmlns:xlink="http://www.w3.org/1999/xlink">
    <!-- Generator: Sketch 39.1 (31720) - http://www.bohemiancoding.com/sketch -->
    <title>arrow-left</title>
    <desc>Created with Sketch.</desc>
    <defs></defs>
    <g id="Page-1" stroke="none" stroke-width="1" fill="none" fill-rule="evenodd">
        <g id="arrow-left" fill="#000000">
            <g id="Page-1">
                <g>
                    <g id="arrow-left">
                        <g id="arrow-up" transform="translate(63.000000, 63.000000) rotate(-90.000000) translate(-63.000000, -63.000000) ">
                            <path d="M63,0 C28.20636,0 0,28.20636 0,63 C0,97.79427 28.20636,126 63,126 C97.79364,126 126,97.79427 126,63 C126,28.20636 97.79364,0 63,0 L63,0 L63,0 Z M100.06857,68.56857 C98.53137,70.10577 96.51537,70.875 94.5,70.875 C92.48463,70.875 90.46926,70.10577 88.93143,68.56857 L70.87563,50.51277 L70.87563,94.49937 C70.87563,98.84826 67.34952,102.37437 63.00063,102.37437 C58.65174,102.37437 55.12563,98.84826 55.12563,94.49937 L55.12563,50.51151 L37.06857,68.56794 C33.99417,71.6436 29.00772,71.6436 25.93206,68.56731 C22.8564,65.49165 22.85703,60.50583 25.93206,57.4308 L57.42954,25.93521 C57.61413,25.74999 57.8088,25.57485 58.01103,25.40916 C58.09482,25.34049 58.18365,25.28064 58.26933,25.21575 C58.3884,25.12566 58.50558,25.03368 58.62969,24.95052 C58.73616,24.87933 58.84641,24.81822 58.9554,24.7527 C59.06691,24.68592 59.1759,24.61599 59.29119,24.55425 C59.40207,24.49503 59.51673,24.44463 59.63013,24.39108 C59.74983,24.33438 59.86701,24.27516 59.98986,24.22413 C60.09948,24.17877 60.21099,24.14223 60.3225,24.10254 C60.45354,24.05529 60.58332,24.00489 60.71814,23.96394 C60.82776,23.93055 60.93927,23.90661 61.05015,23.87889 C61.18812,23.84361 61.3242,23.80518 61.46532,23.77746 C61.59006,23.75289 61.71669,23.7384 61.84269,23.72013 C61.97121,23.70123 62.09721,23.67729 62.22762,23.66469 C62.44749,23.64327 62.66799,23.63445 62.88849,23.6313 C62.92629,23.63067 62.96283,23.62563 63.00126,23.62563 C63.03906,23.62563 63.07497,23.63067 63.11277,23.6313 C63.3339,23.63445 63.55503,23.64327 63.7749,23.66469 C63.90468,23.67729 64.03068,23.70123 64.15857,23.72013 C64.2852,23.73903 64.41183,23.75289 64.5372,23.77809 C64.67706,23.80581 64.81314,23.84361 64.94985,23.87889 C65.06136,23.90724 65.1735,23.93118 65.28438,23.96457 C65.41731,24.00489 65.54646,24.05466 65.67624,24.10191 C65.78838,24.14223 65.90178,24.1794 66.01266,24.22476 C66.13362,24.27516 66.24954,24.33375 66.36735,24.38919 C66.48264,24.44337 66.59856,24.4944 66.71133,24.55488 C66.8241,24.61536 66.93057,24.6834 67.04019,24.74892 C67.1517,24.8157 67.26447,24.8787 67.37346,24.95115 C67.49253,25.03053 67.60467,25.11936 67.7187,25.20504 C67.81005,25.27371 67.90392,25.33671 67.99275,25.40979 C68.1912,25.57296 68.38209,25.74495 68.56416,25.92639 C68.56605,25.92828 68.56857,25.93017 68.57046,25.93206 L100.06983,57.43143 C103.1436,60.50709 103.1436,65.49291 100.06857,68.56857 L100.06857,68.56857 L100.06857,68.56857 Z" id="Shape"></path>
                        </g>
                    </g>
                </g>
            </g>
        </g>
    </g>
</svg>