<?xml version="1.0" encoding="UTF-8" standalone="no"?>
<svg width="128px" height="128px" viewBox="0 0 128 128" version="1.1" xmlns="http://www.w3.org/2000/svg" xmlns:xlink="http://www.w3.org/1999/xlink">
    <!-- Generator: Sketch 39.1 (31720) - http://www.bohemiancoding.com/sketch -->
    <title>close-circle</title>
    <desc>Created with Sketch.</desc>
    <defs></defs>
    <g id="Page-1" stroke="none" stroke-width="1" fill="none" fill-rule="evenodd">
        <g id="close-circle" fill="#000000">
            <g id="Page-1">
                <g>
                    <g id="close-circle">
                        <g id="Layer_1">
                            <g id="Group">
                                <path d="M64,0 C28.65344,0 0,28.65344 0,64 C0,99.34592 28.65344,128 64,128 C99.34656,128 128,99.34592 128,64 C128,28.65344 99.34656,0 64,0 L64,0 L64,0 Z M92.17856,91.42464 C89.05472,94.54848 83.98912,94.54848 80.86464,91.42464 L64.40768,74.96768 L47.13536,92.24 C44.01088,95.36448 38.94528,95.36448 35.82144,92.24 C32.6976,89.11616 32.6976,84.05056 35.82144,80.92608 L53.0944,63.65376 L36.51456,47.07392 C33.39072,43.95008 33.39072,38.88448 36.51456,35.76 C39.63904,32.63552 44.704,32.63616 47.82848,35.76 L64.40768,52.3392 L80.17152,36.57536 C83.29536,33.45152 88.36096,33.45152 91.48544,36.57536 C94.60928,39.6992 94.60928,44.7648 91.48544,47.88928 L75.7216,63.65312 L92.17856,80.11008 C95.3024,83.23456 95.3024,88.30016 92.17856,91.42464 L92.17856,91.42464 L92.17856,91.42464 Z" id="Shape"></path>
                            </g>
                        </g>
                    </g>
                </g>
            </g>
        </g>
    </g>
</svg>