<?xml version="1.0" encoding="UTF-8" standalone="no"?>
<svg width="128px" height="128px" viewBox="0 0 128 128" version="1.1" xmlns="http://www.w3.org/2000/svg" xmlns:xlink="http://www.w3.org/1999/xlink">
    <!-- Generator: Sketch 39.1 (31720) - http://www.bohemiancoding.com/sketch -->
    <title>check</title>
    <desc>Created with Sketch.</desc>
    <defs></defs>
    <g id="Page-1" stroke="none" stroke-width="1" fill="none" fill-rule="evenodd">
        <g id="check" fill="#000000">
            <g id="Shape">
                <path d="M63,0 C28.20636,0 0,28.20636 0,63 C0,97.79427 28.20636,126 63,126 C97.79364,126 126,97.79427 126,63 C126,28.20636 97.79364,0 63,0 L63,0 Z M99.27414,47.45601 L57.04839,89.68113 C55.51497,91.21455 53.49897,91.98756 51.47856,91.98756 C49.60494,91.98756 47.72754,91.32228 46.22877,89.98164 L24.67395,70.69734 C21.4326,67.79745 21.15603,62.81919 24.05592,59.57784 C26.95644,56.33649 31.9347,56.06055 35.17542,58.95981 L51.17868,73.27782 L88.137,36.31887 C91.21266,33.24384 96.19911,33.24384 99.27414,36.31887 C102.34917,39.39453 102.34917,44.38035 99.27414,47.45601 L99.27414,47.45601 Z"></path>
            </g>
        </g>
    </g>
</svg>