<?xml version="1.0" encoding="UTF-8" standalone="no"?>
<svg width="160px" height="160px" viewBox="0 0 160 160" version="1.1" xmlns="http://www.w3.org/2000/svg" xmlns:xlink="http://www.w3.org/1999/xlink">
    <!-- Generator: Sketch 39.1 (31720) - http://www.bohemiancoding.com/sketch -->
    <title>noun_557329_cc</title>
    <desc>Created with Sketch.</desc>
    <defs></defs>
    <g id="Page-1" stroke="none" stroke-width="1" fill="none" fill-rule="evenodd">
        <g id="noun_557329_cc" fill="#FBD4D5">
            <circle id="Oval" cx="80" cy="80" r="80"></circle>
        </g>
        <g id="noun_521152_cc" transform="translate(37.000000, 30.000000)">
            <g id="Group" transform="translate(0.170048, 0.000000)">
                <path d="M86.5545894,35.1891243 C86.5545894,34.4022017 86.1464734,33.7521353 85.6533333,33.341567 L74.7702415,24.5827767 L74.7702415,10.1615653 C74.7702415,8.82721834 73.6989372,7.74947657 72.3725604,7.74947657 L53.8372947,7.74947657 L44.858744,0.530317381 C43.9744928,-0.171070123 42.7331401,-0.171070123 41.8658937,0.530317381 L32.887343,7.74947657 L14.3690821,7.74947657 C13.0427053,7.74947657 11.971401,8.82721834 11.971401,10.1615653 L11.971401,24.5827767 L1.07130435,33.358674 C0.425120773,33.8205633 0.119033816,34.6759139 0.170048309,35.2404453 L0.170048309,84.4915337 C0.170048309,85.8258807 1.24135266,86.9036225 2.56772947,86.9036225 L84.1399034,86.9036225 C85.4662802,86.9036225 86.5375845,85.8258807 86.5375845,84.4915337 L86.5375845,35.2404453 L86.5375845,35.2404453 C86.5545894,35.2233383 86.5545894,35.2062313 86.5545894,35.1891243 L86.5545894,35.1891243 Z M74.7702415,30.7755151 L80.3138164,35.2404453 L74.7702415,39.6882685 L74.7702415,30.7755151 L74.7702415,30.7755151 Z M43.3623188,5.50845796 L46.1511111,7.74947657 L40.5735266,7.74947657 L43.3623188,5.50845796 L43.3623188,5.50845796 Z M16.7667633,12.5907611 L69.9748792,12.5907611 L69.9748792,43.5544533 L61.1833816,50.6025424 C59.4148792,42.3227484 52.1028019,36.0957959 43.3623188,36.0957959 C34.6218357,36.0957959 27.3097585,42.3227484 25.541256,50.6025424 L16.7497585,43.5544533 L16.7667633,12.5907611 Z M56.7791304,54.1265869 L43.3623188,64.9040047 L29.9455072,54.1436939 C30.0985507,46.8389997 36.0502415,40.9370804 43.3623188,40.9370804 C50.6743961,40.9199734 56.6090821,46.8218927 56.7791304,54.1265869 L56.7791304,54.1265869 Z M11.971401,30.7755151 L11.971401,39.6882685 L6.42782609,35.2404453 L11.971401,30.7755151 L11.971401,30.7755151 Z M4.98241546,40.2527999 L29.367343,59.840329 L4.98241546,79.4620721 L4.98241546,40.2527999 L4.98241546,40.2527999 Z M9.42067633,82.079445 L33.2104348,62.9366982 L41.8658937,69.8821452 C42.8181643,70.6006397 43.9744928,70.5835327 44.858744,69.8821452 L53.5142029,62.9366982 L77.3039614,82.079445 L9.42067633,82.079445 L9.42067633,82.079445 Z M81.7592271,79.4620721 L57.3572947,59.840329 L81.7422222,40.2527999 L81.7422222,79.4620721 L81.7592271,79.4620721 Z" id="Shape" fill="#EB4147"></path>
                <path d="M16.7667633,12.5907611 L69.9748792,12.5907611 L69.9748792,43.5544533 L61.1833816,50.6025424 C59.4148792,42.3227484 52.1028019,36.0957959 43.3623188,36.0957959 C34.6218357,36.0957959 27.3097585,42.3227484 25.541256,50.6025424 L16.7497585,43.5544533 L16.7667633,12.5907611 Z" id="Path" fill="#FFA1A3" opacity="0.226854011"></path>
                <path d="M56.7791304,54.1265869 L43.3623188,64.9040047 L29.9455072,54.1436939 C30.0985507,46.8389997 36.0502415,40.9370804 43.3623188,40.9370804 C50.6743961,40.9199734 56.6090821,46.8218927 56.7791304,54.1265869 L56.7791304,54.1265869 Z" id="Path" fill="#FBC8C9"></path>
                <path d="M43.3623188,33.2902459 C48.2597101,33.2902459 52.2388406,29.2872051 52.2388406,24.3603855 C52.2388406,19.433566 48.2597101,15.4305251 43.3623188,15.4305251 C38.4649275,15.4305251 34.4857971,19.433566 34.4857971,24.3603855 C34.4857971,29.270098 38.4649275,33.2902459 43.3623188,33.2902459 L43.3623188,33.2902459 Z M43.3623188,20.2375955 C45.6069565,20.2375955 47.4434783,22.0851529 47.4434783,24.3432785 C47.4434783,26.6014041 45.6069565,28.4489614 43.3623188,28.4489614 C41.1176812,28.4489614 39.2811594,26.6014041 39.2811594,24.3432785 C39.2811594,22.0851529 41.1176812,20.2375955 43.3623188,20.2375955 L43.3623188,20.2375955 Z" id="Shape" fill="#EB4147"></path>
            </g>
        </g>
    </g>
</svg>