<?xml version="1.0" encoding="UTF-8" standalone="no"?>
<svg width="160px" height="236px" viewBox="0 0 160 236" version="1.1" xmlns="http://www.w3.org/2000/svg" xmlns:xlink="http://www.w3.org/1999/xlink">
    <!-- Generator: Sketch 39.1 (31720) - http://www.bohemiancoding.com/sketch -->
    <title>Page 1</title>
    <desc>Created with Sketch.</desc>
    <defs>
        <polygon id="path-1" points="159.807369 161.104191 0 161.104191 0 80.6054435 0 0.106695991 159.807369 0.106695991"></polygon>
        <polygon id="path-3" points="0 235.681856 160.629984 235.681856 160.629984 0.496006337 0 0.496006337"></polygon>
    </defs>
    <g id="Page-1" stroke="none" stroke-width="1" fill="none" fill-rule="evenodd">
        <g>
            <g id="Group-3" transform="translate(0.000000, 74.577665)">
                <mask id="mask-2" fill="white">
                    <use xlink:href="#path-1"></use>
                </mask>
                <g id="Clip-2"></g>
                <path d="M0,80.6059254 C0,36.1468122 35.7742,0.106695991 79.9052786,0.106695991 C124.033169,0.106695991 159.807369,36.1468122 159.807369,80.6059254 C159.807369,125.065038 124.033169,161.105155 79.9052786,161.105155 C35.7742,161.105155 0,125.065038 0,80.6059254" id="Fill-1" fill="#FBD4D5" mask="url(#mask-2)"></path>
            </g>
            <path d="M82.8000555,87.1805163 C80.4246741,62.3764362 127.495486,3.33103366 127.495486,3.33103366 C127.495486,3.33103366 137.411508,63.3978941 114.623789,90.6303456 C110.156797,95.9689082 100.811504,102.264686 94.0424645,103.774388 C87.2766131,105.28409 83.4664376,94.131569 82.8000555,87.1805163" id="Fill-4" fill="#FFA1A3"></path>
            <path d="M125.575094,10.433699 C121.15274,16.2797785 113.777898,26.3337503 106.591174,37.531241 C88.091895,66.3472733 84.9640438,80.2879243 85.5985417,86.9081275 C86.2394164,93.5989976 89.4629205,101.080052 92.8171503,101.080052 C93.0148331,101.080052 93.2220811,101.057567 93.435706,101.009385 C99.2163321,99.7213203 108.112056,94.0165747 112.47383,88.8064973 C129.81252,68.0850365 127.325543,26.5842966 125.575094,10.433699 M92.8171503,106.74304 C84.7695495,106.74304 80.7457491,95.2082755 80.0028446,87.4509777 C78.9538507,76.5136697 86.3223156,58.6702788 101.897803,34.4154733 C113.312387,16.6363251 125.182917,1.70633751 125.304078,1.55536733 C125.995967,0.688091805 127.134237,0.30906028 128.20555,0.591727858 C129.276863,0.871183305 130.083536,1.76415588 130.268465,2.86591701 C130.370495,3.48907054 132.784138,18.3548155 132.41428,36.824572 C131.913696,61.9370166 126.649596,80.6541073 116.775024,92.4554787 C112.247451,97.8647083 102.500416,104.790064 94.6504984,106.537464 C94.0383195,106.675585 93.4229523,106.74304 92.8171503,106.74304" id="Fill-6" fill="#FFA1A3"></path>
            <path d="M69.7000663,170.158548 L127.493573,3.33007002" id="Fill-8" fill="#000000"></path>
            <path d="M70.2593172,172.849029 C69.9532278,172.849029 70.0074311,170.266475 69.7013417,170.157263 C68.2346633,169.643322 69.4781515,169.6112 67.3546562,168.679682 L124.842074,2.39726702 C125.352223,0.919686492 126.956004,0.142350651 128.419494,0.656291703 C129.886172,1.17023275 130.660961,2.78593494 130.147624,4.26351546 L72.3541166,171.091993 C70.9065688,171.194781 69.4845284,171.808298 70.2593172,172.849029" id="Fill-10" fill="#EB4147"></path>
            <path d="M41.9256406,186.240405 L114.347671,186.240405 L119.229159,156.412552 L90.8712506,156.412552 C89.3184846,156.412552 88.0622426,155.14376 88.0622426,153.579452 L88.0622426,142.06396 L68.1983152,142.06396 L68.1983152,153.579452 C68.1983152,155.14376 66.9388848,156.412552 65.3861187,156.412552 L37.2003854,156.412552 L41.9256406,186.240405 Z M116.732618,191.903393 L39.5279403,191.903393 C38.1473495,191.903393 36.9708183,190.891572 36.7508165,189.519992 L31.129612,154.025938 C31.0020748,153.210057 31.2348303,152.374902 31.7672983,151.742112 C32.3029548,151.112535 33.0841205,150.749564 33.9067357,150.749564 L62.5771106,150.749564 L62.5771106,139.234072 C62.5771106,137.669764 63.836541,136.400972 65.3861187,136.400972 L90.8712506,136.400972 C92.4240167,136.400972 93.6834471,137.669764 93.6834471,139.234072 L93.6834471,150.749564 L122.541939,150.749564 C123.367743,150.749564 124.148909,151.115747 124.684565,151.748537 C125.220222,152.384539 125.449789,153.222905 125.315875,154.041999 L119.506553,189.53284 C119.280174,190.901208 118.106831,191.903393 116.732618,191.903393 L116.732618,191.903393 Z" id="Fill-12" fill="#EB4147"></path>
            <path d="M41.9256406,186.240405 L114.347671,186.240405 L119.229159,156.412552 L90.8712506,156.412552 C89.3184846,156.412552 88.0622426,155.14376 88.0622426,153.579452 L88.0622426,142.06396 L68.1983152,142.06396 L68.1983152,153.579452 C68.1983152,155.14376 66.9388848,156.412552 65.3861187,156.412552 L37.2003854,156.412552 L41.9256406,186.240405 Z M116.732618,191.903393 L39.5279403,191.903393 C38.1473495,191.903393 36.9708183,190.891572 36.7508165,189.519992 L31.129612,154.025938 C31.0020748,153.210057 31.2348303,152.374902 31.7672983,151.742112 C32.3029548,151.112535 33.0841205,150.749564 33.9067357,150.749564 L62.5771106,150.749564 L62.5771106,139.234072 C62.5771106,137.669764 63.836541,136.400972 65.3861187,136.400972 L90.8712506,136.400972 C92.4240167,136.400972 93.6834471,137.669764 93.6834471,139.234072 L93.6834471,150.749564 L122.541939,150.749564 C123.367743,150.749564 124.148909,151.115747 124.684565,151.748537 C125.220222,152.384539 125.449789,153.222905 125.315875,154.041999 L119.506553,189.53284 C119.280174,190.901208 118.106831,191.903393 116.732618,191.903393 L116.732618,191.903393 Z" id="Fill-12" fill="#EB4147"></path>
            <mask id="mask-4" fill="white">
                <use xlink:href="#path-3"></use>
            </mask>
            <g id="Clip-15"></g>
            <path d="M57.0474141,136.401293 L99.2112306,136.401293 L99.2112306,126.79702 L57.0474141,126.79702 L57.0474141,136.401293 Z M102.023427,142.064281 L54.2384061,142.064281 C52.68564,142.064281 51.4262096,140.798701 51.4262096,139.234393 L51.4262096,123.967132 C51.4262096,122.402824 52.68564,121.134032 54.2384061,121.134032 L102.023427,121.134032 C103.576193,121.134032 104.832435,122.402824 104.832435,123.967132 L104.832435,139.234393 C104.832435,140.798701 103.576193,142.064281 102.023427,142.064281 L102.023427,142.064281 Z" id="Fill-14" fill="#EB4147" mask="url(#mask-4)"></path>
            <polygon id="Fill-16" fill="#FFFFFF" mask="url(#mask-4)" points="138.070017 47.1170229 150.109534 47.1170229 144.089776 57.6206931 138.070017 68.1243634 132.050259 57.6206931 126.0305 47.1170229"></polygon>
            <polygon id="Stroke-17" stroke="#FFFFFF" stroke-width="2" mask="url(#mask-4)" points="137.070017 47.1170229 149.109534 47.1170229 143.089776 57.6206931 137.070017 68.1243634 131.050259 57.6206931 125.0305 47.1170229"></polygon>
            <path d="M71.8104891,170.855901 C73.9052885,170.152445 70.0504749,170.014323 70.0504749,170.014323 L67.3562504,168.678076 L67.0437842,172.747847 C67.0437842,172.747847 66.9672618,177.842287 67.2765396,177.22877 C69.6551095,172.513361 72.3525224,171.090387 72.3525224,171.090387 C72.3525224,171.090387 70.1206204,171.424449 71.8104891,170.855901" id="Fill-18" fill="#EB4147" mask="url(#mask-4)"></path>
        </g>
    </g>
</svg>