<?xml version="1.0" encoding="UTF-8" standalone="no"?>
<svg width="103px" height="103px" viewBox="0 0 103 103" version="1.1" xmlns="http://www.w3.org/2000/svg" xmlns:xlink="http://www.w3.org/1999/xlink">
    <!-- Generator: Sketch 3.8.3 (29802) - http://www.bohemiancoding.com/sketch -->
    <title>Oval 1</title>
    <desc>Created with Sketch.</desc>
    <defs>
        <circle id="path-1" cx="24" cy="10" r="3"></circle>
        <mask id="mask-2" maskContentUnits="userSpaceOnUse" maskUnits="objectBoundingBox" x="0" y="0" width="6" height="6" fill="white">
            <use xlink:href="#path-1"></use>
        </mask>
    </defs>
    <g id="Page-1" stroke="none" stroke-width="1" fill="none" fill-rule="evenodd">
        <circle id="Oval-1" fill="#FFE1E2" cx="51.5" cy="51.5" r="50.5"></circle>
        <g id="beaker_placeholder" transform="translate(30.000000, 16.000000)">
            <path d="M2,64 L42,64 C42.3,64 42.7,63.8 42.9,63.5 C43.1,63.2 43.1,62.8 42.9,62.5 L29,34.8 L29,18 L31,18 C31.6,18 32,17.6 32,17 C32,16.4 31.6,16 31,16 L13,16 C12.4,16 12,16.4 12,17 C12,17.6 12.4,18 13,18 L15,18 L15,34.8 L1.1,62.6 C0.9,62.9 1,63.3 1.1,63.6 C1.3,63.8 1.7,64 2,64 L2,64 Z M16.9,35.4 C17,35.3 17,35.2 17,35 L17,18 L27,18 L27,35 C27,35.2 27,35.3 27.1,35.4 L30.6,42.3 C29.1,42.7 27.6,42.9 26,42.9 L26,42.9 C24,42.9 22.5,42.4 20.9,41.9 C19.4,41.4 17.9,40.9 16,40.9 C15.4,40.9 14.7,41 14,41.1 L16.9,35.4 L16.9,35.4 Z M12.7,43.8 C13.9,43.3 15,43 16,43 C17.6,43 18.9,43.5 20.3,43.9 C22,44.4 23.7,45 26,45 L26,45 C27.8,45 29.7,44.7 31.5,44.2 L40.4,62 L3.6,62 L12.7,43.8 L12.7,43.8 Z" id="Shape" fill="#EA4248"></path>
            <path d="M16,43 C17.6,43 18.9,43.5 20.3,43.9 C22,44.4 23.7,45 26,45 C27.8,45 29.7,44.7 31.5,44.2 L40.4,62 L3.6,62 L12.7,43.8 C13.9,43.3 15,43 16,43 Z" id="Path" fill-opacity="0.402513587" fill="#EA4248" opacity="0.627040578"></path>
            <path d="M12.9766407,48.5766407 L10.0766407,54.1766407 C9.87664068,54.6766407 10.0766407,55.2766407 10.5766407,55.4766407 C10.6766407,55.5766407 10.8766407,55.5766407 10.9766407,55.5766407 C11.3766407,55.5766407 11.6766407,55.3766407 11.8766407,54.9766407 L14.7766407,49.3766407 C14.9766407,48.8766407 14.7766407,48.2766407 14.2766407,48.0766407 C13.7766407,47.8766407 13.1766407,48.0766407 12.9766407,48.5766407 Z" id="Shape" fill="#EA4248"></path>
            <path d="M8.8532814,56.5766407 L8.07664068,58.2 C7.87664068,58.7 8.07664068,59.3 8.57664068,59.5 C8.67664068,59.6 8.87664068,59.6 8.97664068,59.6 C9.37664068,59.6 9.67664068,59.4 9.87664068,59 L10.6532814,57.3766407 C10.8532814,56.8766407 10.6532814,56.2766407 10.1532814,56.0766407 C9.6532814,55.8766407 9.0532814,56.0766407 8.8532814,56.5766407 Z" id="Shape" fill="#EA4248"></path>
            <use id="Oval-2" stroke="#EA4248" mask="url(#mask-2)" stroke-width="2.8" fill="#FFFFFF" xlink:href="#path-1"></use>
            <circle id="Oval-2" stroke="#EA4248" stroke-width="1.5" fill="#FFFFFF" cx="17.5" cy="3.5" r="3.5"></circle>
        </g>
    </g>
</svg>