<?xml version="1.0" encoding="UTF-8" standalone="no"?>
<svg width="160px" height="160px" viewBox="0 0 160 160" version="1.1" xmlns="http://www.w3.org/2000/svg" xmlns:xlink="http://www.w3.org/1999/xlink">
    <!-- Generator: Sketch 39.1 (31720) - http://www.bohemiancoding.com/sketch -->
    <title>noun_557329_cc</title>
    <desc>Created with Sketch.</desc>
    <defs></defs>
    <g id="Page-1" stroke="none" stroke-width="1" fill="none" fill-rule="evenodd">
        <g id="noun_557329_cc">
            <circle id="Oval" fill="#FBD4D5" cx="80" cy="80" r="80"></circle>
            <g id="Group" transform="translate(34.000000, 34.637820)">
                <path d="M15,0.36217 C12.26459,0.36217 10,2.62676 10,5.36217 L10,8.36217 L4,8.36217 C1.81857,8.36217 0,10.18077 0,12.36217 L0,78.3622 C0,80.5436 1.81857,82.3622 4,82.3622 L62.1562,82.3622 C64.9288,87.1413 70.096,90.3622 76,90.3622 C84.8129,90.3622 92,83.1751 92,74.3622 C92,68.4582 88.7791,63.291 84,60.5184 L84,12.36217 C84,10.18077 82.1814,8.36217 80,8.36217 L74,8.36217 L74,5.36217 C74,2.62676 71.7354,0.36217 69,0.36217 C66.2646,0.36217 64,2.62676 64,5.36217 L64,8.36217 L56,8.36217 L56,5.36217 C56,2.62676 53.7354,0.36217 51,0.36217 C48.2646,0.36217 46,2.62676 46,5.36217 L46,8.36217 L38,8.36217 L38,5.36217 C38,2.62676 35.73541,0.36217 33,0.36217 C30.26459,0.36217 28,2.62676 28,5.36217 L28,8.36217 L20,8.36217 L20,5.36217 C20,2.62676 17.73541,0.36217 15,0.36217 L15,0.36217 Z M15,4.36217 C15.58859,4.36217 16,4.77358 16,5.36217 L16,15.36217 C16,15.95076 15.58859,16.36217 15,16.36217 C14.4114,16.36217 14,15.95076 14,15.36217 L14,5.36217 C14,4.77358 14.4114,4.36217 15,4.36217 L15,4.36217 Z M33,4.36217 C33.58859,4.36217 34,4.77358 34,5.36217 L34,15.36217 C34,15.95076 33.58859,16.36217 33,16.36217 C32.4114,16.36217 32,15.95076 32,15.36217 L32,5.36217 C32,4.77358 32.4114,4.36217 33,4.36217 L33,4.36217 Z M51,4.36217 C51.5886,4.36217 52,4.77358 52,5.36217 L52,15.36217 C52,15.95076 51.5886,16.36217 51,16.36217 C50.4114,16.36217 50,15.95076 50,15.36217 L50,5.36217 C50,4.77358 50.4114,4.36217 51,4.36217 L51,4.36217 Z M69,4.36217 C69.5886,4.36217 70,4.77358 70,5.36217 L70,15.36217 C70,15.95076 69.5886,16.36217 69,16.36217 C68.4114,16.36217 68,15.95076 68,15.36217 L68,5.36217 C68,4.77358 68.4114,4.36217 69,4.36217 L69,4.36217 Z M4,12.36217 L10,12.36217 L10,15.36217 C10,18.09758 12.26459,20.36217 15,20.36217 C17.73541,20.36217 20,18.09758 20,15.36217 L20,12.36217 L28,12.36217 L28,15.36217 C28,18.09758 30.26459,20.36217 33,20.36217 C35.73541,20.36217 38,18.09758 38,15.36217 L38,12.36217 L46,12.36217 L46,15.36217 C46,18.09758 48.2646,20.36217 51,20.36217 C53.7354,20.36217 56,18.09758 56,15.36217 L56,12.36217 L64,12.36217 L64,15.36217 C64,18.09758 66.2646,20.36217 69,20.36217 C71.7354,20.36217 74,18.09758 74,15.36217 L74,12.36217 L80,12.36217 L80,24.36217 L4,24.36217 L4,12.36217 L4,12.36217 Z M4,28.36217 L80,28.36217 L80,58.8934 C78.718,58.5606 77.3837,58.3622 76,58.3622 C67.1871,58.3622 60,65.5493 60,74.3622 C60,75.7458 60.1984,77.0802 60.5312,78.3622 L4,78.3622 L4,28.36217 L4,28.36217 Z M76,62.3622 C82.6511,62.3622 88,67.7111 88,74.3622 C88,81.0133 82.6511,86.3622 76,86.3622 C69.3489,86.3622 64,81.0133 64,74.3622 C64,67.7111 69.3489,62.3622 76,62.3622 L76,62.3622 Z" id="Shape" fill="#EB4147"></path>
                <path d="M76,62.3622 C82.6511,62.3622 88,67.7111 88,74.3622 C88,81.0133 82.6511,86.3622 76,86.3622 C69.3489,86.3622 64,81.0133 64,74.3622 C64,67.7111 69.3489,62.3622 76,62.3622 L76,62.3622 Z" id="Path" fill="#FFFFFF"></path>
                <path d="M4,12.36217 L10,12.36217 L10,15.36217 C10,18.09758 12.26459,20.36217 15,20.36217 C17.73541,20.36217 20,18.09758 20,15.36217 L20,12.36217 L28,12.36217 L28,15.36217 C28,18.09758 30.26459,20.36217 33,20.36217 C35.73541,20.36217 38,18.09758 38,15.36217 L38,12.36217 L46,12.36217 L46,15.36217 C46,18.09758 48.2646,20.36217 51,20.36217 C53.7354,20.36217 56,18.09758 56,15.36217 L56,12.36217 L64,12.36217 L64,15.36217 C64,18.09758 66.2646,20.36217 69,20.36217 C71.7354,20.36217 74,18.09758 74,15.36217 L74,12.36217 L80,12.36217 L80,24.36217 L4,24.36217 L4,12.36217 L4,12.36217 Z" id="Path" fill="#FFFFFF" opacity="0.185051306"></path>
                <path d="M4,28.36217 L80,28.36217 L80,58.8934 C78.718,58.5606 77.3837,58.3622 76,58.3622 C67.1871,58.3622 60,65.5493 60,74.3622 C60,75.7458 60.1984,77.0802 60.5312,78.3622 L4,78.3622 L4,28.36217 L4,28.36217 Z" id="Path" fill="#EB4147" opacity="0.256529851"></path>
            </g>
        </g>
        <text id="user" font-family="SSStandard, SS Standard" font-size="12" font-weight="normal" fill="#EB4147">
            <tspan x="104" y="115">user</tspan>
        </text>
    </g>
</svg>