<?xml version="1.0" encoding="UTF-8" standalone="no"?>
<svg width="160px" height="160px" viewBox="0 0 160 160" version="1.1" xmlns="http://www.w3.org/2000/svg" xmlns:xlink="http://www.w3.org/1999/xlink">
    <!-- Generator: Sketch 39.1 (31720) - http://www.bohemiancoding.com/sketch -->
    <title>noun_557329_cc</title>
    <desc>Created with Sketch.</desc>
    <defs></defs>
    <g id="Page-1" stroke="none" stroke-width="1" fill="none" fill-rule="evenodd">
        <g id="noun_557329_cc" fill="#FBD4D5">
            <path d="M80,160 C124.18278,160 160,124.18278 160,80 C160,35.81722 124.18278,0 80,0 C35.81722,0 0,35.81722 0,80 C0,124.18278 35.81722,160 80,160 Z" id="Oval"></path>
        </g>
        <path d="M91.481619,29.6966632 L64.528309,29.6966632 C60.1786131,29.6966632 56.6387539,33.2365224 56.6387539,37.5862183 L56.6387539,56.5892078 C56.6387539,60.9389037 60.1786131,64.4787629 64.528309,64.4787629 L71.5450524,64.4787629 L71.5450524,126.588708 C71.5450524,127.960901 72.6576111,129.07346 74.0298037,129.07346 L81.9801242,129.07346 C83.3523168,129.07346 84.4648756,127.960901 84.4648756,126.588708 L84.4648756,123.110719 L93.905605,123.110719 C95.2777976,123.110719 96.3903563,121.998161 96.3903563,120.625968 L96.3903563,110.688067 C96.3903563,109.315875 95.2777976,108.203316 93.905605,108.203316 L84.4648756,108.203316 L84.4648756,106.215736 L90.9247872,106.215736 C92.2969798,106.215736 93.4095386,105.103177 93.4095386,103.730984 L93.4095386,89.8190284 C93.4095386,88.4468358 92.2969798,87.3342771 90.9247872,87.3342771 L84.4648756,87.3342771 L84.4648756,64.4776581 L91.481619,64.4776581 C95.8313149,64.4776581 99.3711741,60.9377989 99.3711741,56.588103 L99.3711741,37.5851135 C99.3711741,33.2354176 95.8313149,29.6966632 91.481619,29.6966632 L91.481619,29.6966632 Z M91.4208536,113.172819 L91.4208536,118.141217 L84.4648756,118.141217 L84.4648756,113.172819 L91.4208536,113.172819 L91.4208536,113.172819 Z M88.4400358,92.3037798 L88.4400358,101.247338 L84.4648756,101.247338 L84.4648756,92.3037798 L88.4400358,92.3037798 L88.4400358,92.3037798 Z M79.4953729,89.8190284 L79.4953729,103.732089 L79.4953729,110.688067 L79.4953729,120.625968 L79.4953729,124.103957 L76.5145551,124.103957 L76.5145551,64.4776581 L79.4953729,64.4776581 L79.4953729,89.8190284 L79.4953729,89.8190284 Z M94.4027762,56.588103 C94.4027762,58.1989378 93.0924538,59.5092602 91.481619,59.5092602 L64.528309,59.5092602 C62.9174742,59.5092602 61.6071518,58.1989378 61.6071518,56.588103 L61.6071518,37.5851135 C61.6071518,35.9742787 62.9174742,34.6639563 64.528309,34.6639563 L91.481619,34.6639563 C93.0924538,34.6639563 94.4027762,35.9742787 94.4027762,37.5851135 L94.4027762,56.588103 L94.4027762,56.588103 Z" id="Shape" fill="#EB4147" transform="translate(78.004964, 79.385061) rotate(40.000000) translate(-78.004964, -79.385061) "></path>
        <path d="M94.877,42.677 C91.951,42.677 89.571,45.057 89.571,47.983 C89.571,50.908 91.951,53.289 94.877,53.289 C97.802,53.289 100.183,50.909 100.183,47.983 C100.183,45.057 97.803,42.677 94.877,42.677 L94.877,42.677 Z M94.877,48.792 C94.431,48.792 94.068,48.429 94.068,47.983 C94.068,47.537 94.431,47.174 94.877,47.174 C95.323,47.174 95.686,47.537 95.686,47.983 C95.686,48.429 95.323,48.792 94.877,48.792 L94.877,48.792 Z" id="Shape" fill="#EB4147"></path>
    </g>
</svg>